#define foo_width 10
#define foo_height 10
static unsigned char foo_bits[] = {
   0x00, 0x00, 0xf3, 0x01, 0x00, 0x00, 0x00, 0x00, 0x3f, 0x03, 0x00, 0x00,
   0x00, 0x00, 0x00, 0x00, 0x00, 0x00, 0x00, 0x00 };
